<?xml version="1.0" encoding="iso-8859-1"?>
<!-- Uploaded to: SVG Repo, www.svgrepo.com, Generator: SVG Repo Mixer Tools -->
<svg height="800px" width="800px" version="1.1" id="Layer_1" xmlns="http://www.w3.org/2000/svg" xmlns:xlink="http://www.w3.org/1999/xlink" 
	 viewBox="0 0 512 512" xml:space="preserve">
<g>
	<circle style="fill:#FE834D;" cx="288.681" cy="256" r="8.17"/>
	<circle style="fill:#FE834D;" cx="256" cy="256" r="8.17"/>
	<circle style="fill:#FE834D;" cx="223.319" cy="256" r="8.17"/>
</g>
<path d="M256,0c-4.513,0-8.17,3.658-8.17,8.17v108.936c0,4.512,3.657,8.17,8.17,8.17s8.17-3.658,8.17-8.17V8.17
	C264.17,3.658,260.513,0,256,0z"/>
<path d="M139.161,37.288c-2.255-3.908-7.254-5.246-11.161-2.99c-3.908,2.256-5.246,7.253-2.99,11.161l54.468,94.342
	c1.513,2.621,4.259,4.086,7.083,4.086c1.386,0,2.792-0.353,4.077-1.096c3.908-2.256,5.246-7.253,2.99-11.161L139.161,37.288z"/>
<path d="M37.288,139.161l94.342,54.468c1.288,0.743,2.692,1.096,4.077,1.096c2.824,0,5.57-1.466,7.083-4.086
	c2.256-3.908,0.917-8.904-2.99-11.161L45.458,125.01c-3.911-2.258-8.907-0.917-11.161,2.99
	C32.041,131.908,33.381,136.904,37.288,139.161z"/>
<path d="M321.362,142.79c1.288,0.743,2.692,1.096,4.077,1.096c2.824,0,5.57-1.466,7.083-4.086l54.468-94.342
	c2.256-3.908,0.917-8.904-2.99-11.161c-3.911-2.257-8.906-0.917-11.161,2.99l-54.468,94.342
	C316.115,135.537,317.454,140.534,321.362,142.79z"/>
<path d="M369.21,190.638c1.513,2.621,4.259,4.086,7.083,4.086c1.386,0,2.792-0.353,4.077-1.096l94.342-54.468
	c3.908-2.256,5.246-7.253,2.99-11.161c-2.255-3.909-7.254-5.247-11.16-2.99L372.2,179.478
	C368.292,181.734,366.954,186.731,369.21,190.638z"/>
<path d="M125.277,256c0-4.512-3.657-8.17-8.17-8.17H8.17C3.657,247.83,0,251.488,0,256s3.657,8.17,8.17,8.17h108.936
	C121.62,264.17,125.277,260.512,125.277,256z"/>
<path d="M142.79,321.362c-2.255-3.908-7.254-5.246-11.161-2.99l-94.342,54.468c-3.908,2.256-5.246,7.253-2.99,11.161
	c1.513,2.621,4.259,4.086,7.083,4.086c1.386,0,2.792-0.353,4.077-1.096l94.342-54.468
	C143.708,330.266,145.046,325.269,142.79,321.362z"/>
<path d="M190.638,369.21c-3.91-2.258-8.906-0.917-11.161,2.99l-54.468,94.342c-2.256,3.908-0.917,8.904,2.99,11.161
	c1.288,0.743,2.692,1.096,4.077,1.096c2.824,0,5.57-1.466,7.083-4.086l54.468-94.342
	C195.885,376.463,194.546,371.466,190.638,369.21z"/>
<path d="M256,386.723c-4.513,0-8.17,3.658-8.17,8.17V503.83c0,4.512,3.657,8.17,8.17,8.17s8.17-3.658,8.17-8.17V394.894
	C264.17,390.381,260.513,386.723,256,386.723z"/>
<path d="M332.522,372.2c-2.255-3.908-7.255-5.247-11.16-2.99c-3.908,2.256-5.246,7.253-2.99,11.161l54.468,94.342
	c1.513,2.621,4.259,4.086,7.083,4.086c1.386,0,2.792-0.353,4.078-1.096c3.908-2.256,5.246-7.253,2.99-11.161L332.522,372.2z"/>
<path d="M474.712,372.839l-94.342-54.468c-3.911-2.257-8.907-0.917-11.161,2.99c-2.256,3.908-0.917,8.904,2.99,11.16l94.342,54.468
	c1.288,0.743,2.692,1.096,4.078,1.096c2.824,0,5.57-1.466,7.083-4.086C479.959,380.092,478.619,375.096,474.712,372.839z"/>
<path d="M503.83,247.83H394.894c-4.513,0-8.17,3.658-8.17,8.17s3.657,8.17,8.17,8.17H503.83c4.513,0,8.17-3.658,8.17-8.17
	S508.343,247.83,503.83,247.83z"/>
</svg>